<svg xmlns="http://www.w3.org/2000/svg" width="512" height="512" viewBox="0 0 135.46666 135.46666" version="1.1" id="svg1330">
  <g id="layer1">
    <g id="g5538" transform="matrix(0.26458333,0,0,0.26458333,-1.4818212e-4,-4.4742457e-4)">
      <path style="fill:#5f5f5f;fill-opacity:1;stroke-width:1.00035" d="m 136.84431,279.04883 120.92001,-120.10836 120.28226,120.25898 -32.48148,32.43389 -87.921,-87.90397 -88.38004,87.7868 z" id="path332"></path>
      <g id="path2297">
        <path id="path8378" style="fill:#5f5f5f;fill-opacity:1;fill-rule:evenodd" d="M 258.79883,49.148438 C 207.75916,48.577836 158.15657,66.971123 119.75781,100.96289 78.79913,137.22077 53.912213,188.28259 50.585938,242.88281 47.259687,297.48303 65.7651,351.19064 102.01953,392.15234 c 36.25444,40.96172 87.31608,65.85469 141.91602,69.18555 54.59994,3.33083 108.30868,-15.17088 149.27343,-51.42187 40.96433,-36.25061 65.86143,-87.30921 69.19727,-141.90821 l 0.004,-0.0703 v -0.002 -0.0117 C 465.7233,213.32763 447.20948,159.62992 410.95117,118.67773 374.68985,77.722097 323.62392,52.837303 269.02344,49.515625 265.68783,49.312698 262.35552,49.197143 259.0293,49.15625 v -0.0059 z m -0.45117,40.314453 c 2.73821,0.03078 5.48203,0.129844 8.22851,0.296875 43.94321,2.673334 85.00392,22.682884 114.1875,55.644534 29.18358,32.96162 44.07198,76.14447 41.40235,120.08789 l -0.006,0.0605 v 0.01 c -2.68768,43.93727 -22.70636,84.98793 -55.67188,114.16016 -32.96835,29.17523 -76.15493,44.0518 -120.09766,41.37109 -43.94272,-2.6807 -85.00164,-22.69751 -114.17968,-55.66406 -29.17823,-32.96659 -44.057865,-76.15077 -41.380862,-120.09375 2.677026,-43.94295 22.688252,-85.00278 55.652342,-114.1836 30.90382,-27.357 70.79212,-42.150088 111.86524,-41.689449 z"></path>
      </g>
    </g>
  </g>
</svg>
